<!-- icon666.com - MILLIONS vector ICONS FREE --><svg viewBox="0 0 32 32" xmlns="http://www.w3.org/2000/svg"><g id="Door"><path d="m27 18h-20a1 1 0 0 1 -1-1c0-4.87-.1-4.9.26-5.29l3.79-4.14a11 11 0 0 1 8.11-3.57h8.84a1 1 0 0 1 1 1v12a1 1 0 0 1 -1 1zm-19-2h18v-10h-7.84a9 9 0 0 0 -6.63 2.92l-3.53 3.85z" fill="#9f85ec" style="fill: rgb(0, 0, 0);"></path><g fill="#38004d"><path d="m31 7a1 1 0 0 0 1-1v-5a1 1 0 0 0 -1-1h-12.84a15.06 15.06 0 0 0 -11.06 4.86c-7.39 8.07-7.1 7.59-7.1 8.14v10a1 1 0 0 0 1 1h.94a8.15 8.15 0 0 1 8.06 7.12 1 1 0 0 0 1 .88h20a1 1 0 0 0 1-1v-21a1 1 0 0 0 -2 0v16h-20a10.09 10.09 0 0 0 -8-4v-8.61l6.58-7.17a13 13 0 0 1 9.58-4.22h11.84v4a1 1 0 0 0 1 1zm-1 21v2h-18.16a9.38 9.38 0 0 0 -.66-2z" fill="#38004d" style="fill: rgb(0, 0, 0);"></path><path d="m23 20a1 1 0 0 0 0 2h4a1 1 0 0 0 0-2z" fill="#38004d" style="fill: rgb(0, 0, 0);"></path></g></g></svg>