<svg xmlns="http://www.w3.org/2000/svg" viewBox="0 0 613.4 613.4"><path d="M473.635 306.75l115.581-115.581c31.295-31.295 31.295-82.087 0-114.481l-52.891-52.891C521.227 8.699 500.731 0 479.134 0a80.488 80.488 0 00-57.191 23.796l-115.68 116.681L190.781 24.896C175.684 9.798 155.187 1.1 133.591 1.1A80.488 80.488 0 0076.4 24.896L23.409 77.787C9.411 91.785.712 112.382.712 133.978s8.599 42.093 23.796 57.191L139.99 306.75 24.509 422.331C9.411 437.428.712 457.925.712 479.522a80.488 80.488 0 0023.796 57.191L77.4 589.604c15.098 15.098 35.594 23.796 57.191 23.796a80.488 80.488 0 0057.191-23.796l115.581-115.581 114.481 114.481c15.098 15.098 35.594 23.796 57.191 23.796a80.488 80.488 0 0057.191-23.796l52.891-52.891c31.295-31.295 31.295-82.087 0-114.481L473.635 306.75zm86.386 200.867l-51.792 52.891c-15.098 15.098-42.093 15.098-57.191 0L321.46 430.93c-4.299-4.299-8.599-5.399-13.998-5.399-5.399 0-9.698 2.2-13.998 5.399L163.786 560.508c-15.098 15.098-42.093 15.098-57.191 0l-52.891-52.891c-7.599-7.599-11.898-18.397-11.898-29.195s4.299-21.596 11.898-29.195l129.479-129.479c7.599-7.599 7.599-20.497 0-28.095L53.604 162.074c-8.599-6.499-12.998-17.297-12.998-28.095 0-10.798 4.299-21.596 11.898-29.195l52.891-52.891c15.098-15.098 42.093-15.098 57.191 0L292.165 181.47c3.199 3.199 8.599 5.399 13.998 5.399 5.399 0 10.798-2.2 13.998-5.399L449.739 51.892c15.098-15.098 42.093-15.098 57.191 0l53.091 52.891c16.197 16.197 16.197 42.093 0 57.191L430.442 291.552c-3.199 3.199-5.399 8.599-5.399 13.998s2.2 10.798 5.399 13.998l129.579 129.779c16.197 17.197 16.197 43.193 0 58.29z"/></svg>