<!-- icon666.com - MILLIONS vector ICONS FREE --><svg viewBox="0 0 128 128" xmlns="http://www.w3.org/2000/svg"><g><path d="m101.392 12.592a9.758 9.758 0 0 0 -9.449-7.342h-55.886a9.76 9.76 0 0 0 -9.45 7.343c-2 7.8-5.357 24.847-5.357 51.407s3.357 43.608 5.358 51.408a9.758 9.758 0 0 0 9.449 7.342h55.886a9.76 9.76 0 0 0 9.45-7.343c2-7.8 5.357-24.847 5.357-51.407s-3.357-43.608-5.358-51.408zm-3.392 101.945a6.258 6.258 0 0 1 -6.059 4.713h-55.884a6.258 6.258 0 0 1 -6.057-4.712c-1.962-7.638-5.25-24.363-5.25-50.538s3.288-42.9 5.25-50.537a6.259 6.259 0 0 1 6.057-4.713h55.886a6.26 6.26 0 0 1 6.057 4.712c1.962 7.638 5.25 24.363 5.25 50.538s-3.288 42.9-5.25 50.537z"></path><path d="m81.232 17.818h-34.464a1.75 1.75 0 0 0 -1.75 1.75v65.194a1.75 1.75 0 0 0 1.75 1.75h34.464a1.75 1.75 0 0 0 1.75-1.75v-65.194a1.75 1.75 0 0 0 -1.75-1.75zm-1.75 3.5v29.1h-30.964v-29.1zm-30.964 61.694v-29.1h30.964v29.1z"></path><path d="m64 91.3a9.441 9.441 0 1 0 9.441 9.44 9.451 9.451 0 0 0 -9.441-9.44zm0 15.381a5.941 5.941 0 1 1 5.941-5.941 5.948 5.948 0 0 1 -5.941 5.942z"></path><path d="m57.394 45.564h13.212a1.75 1.75 0 0 0 1.75-1.75v-8.774a1.749 1.749 0 0 0 -1.75-1.75h-.539v-1.054a6.067 6.067 0 0 0 -12.134 0v1.054h-.539a1.749 1.749 0 0 0 -1.75 1.75v8.774a1.75 1.75 0 0 0 1.75 1.75zm11.462-3.5h-9.712v-5.274h9.712zm-7.423-9.828a2.567 2.567 0 0 1 5.134 0v1.054h-5.134z"></path><path d="m70.606 66.994h-9.173v-3.268a2.567 2.567 0 1 1 5.134 0 1.75 1.75 0 1 0 3.5 0 6.067 6.067 0 1 0 -12.134 0v3.268h-.539a1.749 1.749 0 0 0 -1.75 1.75v8.774a1.75 1.75 0 0 0 1.75 1.75h13.212a1.75 1.75 0 0 0 1.75-1.75v-8.774a1.749 1.749 0 0 0 -1.75-1.75zm-1.75 8.774h-9.712v-5.274h9.712z"></path></g></svg>