<!-- icon666.com - MILLIONS vector ICONS FREE --><svg version="1.1" id="Capa_1" xmlns="http://www.w3.org/2000/svg" xmlns:xlink="http://www.w3.org/1999/xlink" x="0px" y="0px" viewBox="0 0 511.985 511.985" style="enable-background:new 0 0 511.985 511.985;" xml:space="preserve"><g><g><path d="M455.492,141.445c-3.101-16.123-12.723-30.249-26.59-39.04c-13.805-8.878-30.662-11.664-46.59-7.7l-252.08,61.74 c-7.005,1.574-11.408,8.528-9.834,15.533c1.574,7.005,8.528,11.408,15.533,9.834c0.161-0.036,0.321-0.075,0.481-0.118 l252.09-61.71c18.28-4.459,36.714,6.746,41.173,25.026c0.116,0.476,0.222,0.953,0.317,1.434 c1.615,6.996,8.596,11.357,15.592,9.742C452.252,154.647,456.585,148.201,455.492,141.445z" fill="#000000" style="fill: rgb(44, 201, 91);"></path></g></g><g><g><path d="M352.362,30.845c-16.147-28.981-52.73-39.386-81.711-23.239c-0.793,0.442-1.576,0.902-2.349,1.379l-223.83,138.14 c-6.093,3.768-7.989,11.755-4.24,17.86c3.772,6.108,11.782,8.001,17.89,4.23l223.87-138.13 c16.011-9.884,37.004-4.917,46.888,11.094c0.267,0.433,0.525,0.872,0.772,1.316c3.61,6.206,11.567,8.311,17.774,4.701 C353.47,44.681,355.65,37.015,352.362,30.845z" fill="#000000" style="fill: rgb(44, 201, 91);"></path></g></g><g><g><path d="M433.152,203.755H78.802c-30.814,0.05-55.777,25.026-55.81,55.84v196.53c0.022,30.822,24.988,55.81,55.81,55.86h354.38 c30.816-0.055,55.777-25.034,55.81-55.85v-196.54C488.954,228.771,463.976,203.793,433.152,203.755z M462.992,456.135 c-0.016,16.463-13.347,29.811-29.81,29.85H78.802c-16.467-0.039-29.799-13.393-29.81-29.86v-196.53 c0.022-16.471,13.369-29.818,29.84-29.84h354.35c16.459,0.039,29.788,13.381,29.81,29.84V456.135z" fill="#000000" style="fill: rgb(44, 201, 91);"></path></g></g><g><g><path d="M147.142,253.175c-7.006-1.588-13.972,2.804-15.56,9.81c-5.642,24.554-24.816,43.728-49.37,49.37 c-7.003,1.583-11.397,8.544-9.813,15.547c1.339,5.923,6.601,10.13,12.673,10.133v0.02c0.969,0.001,1.935-0.106,2.88-0.32 c34.321-7.879,61.121-34.679,69-69C158.54,261.729,154.148,254.763,147.142,253.175z" fill="#000000" style="fill: rgb(44, 201, 91);"></path></g></g><g><g><path d="M156.932,446.985c-7.881-34.32-34.68-61.119-69-69c-7.003-1.585-13.965,2.807-15.55,9.81 c-1.585,7.003,2.807,13.965,9.81,15.55l0.01,0.01c24.554,5.642,43.728,24.816,49.37,49.37c1.585,7.003,8.547,11.395,15.55,9.81 C154.125,460.95,158.517,453.988,156.932,446.985z" fill="#000000" style="fill: rgb(44, 201, 91);"></path></g></g><g><g><path d="M432.022,388.565c-2.251-6.818-9.602-10.521-16.42-8.27l0.01,0.04c-30.423,10.143-53.37,35.397-60.56,66.65 c-1.585,7.003,2.807,13.965,9.81,15.55c7.003,1.585,13.965-2.807,15.55-9.81c5.128-22.385,21.553-40.479,43.34-47.74 C430.57,402.734,434.273,395.383,432.022,388.565z" fill="#000000" style="fill: rgb(44, 201, 91);"></path></g></g><g><g><path d="M423.762,310.705c-21.788-7.254-38.221-25.339-43.36-47.72c-1.585-7.003-8.547-11.395-15.55-9.81 c-7.003,1.585-11.395,8.547-9.81,15.55c7.186,31.263,30.138,56.526,60.57,66.67c6.818,2.251,14.169-1.452,16.42-8.27 C434.283,320.307,430.58,312.955,423.762,310.705z" fill="#000000" style="fill: rgb(44, 201, 91);"></path></g></g><g><g><path d="M259.352,345.295l-0.42-0.1c-22.94-5.21-22.94-14.51-22.94-17.56c0-8.3,6.25-17.23,20-17.23 c8.055,0.001,15.323,4.833,18.44,12.26c2.778,6.627,10.403,9.748,17.03,6.97c6.627-2.778,9.748-10.403,6.97-17.03 c-5.34-12.768-16.158-22.443-29.44-26.33v-10.56c0-7.18-5.82-13-13-13c-7.18,0-13,5.82-13,13v10.27c-19.48,5-33,21.24-33,41.6 c0,12.34,5.59,34.21,42.67,42.85l0.42,0.1c22.91,5.23,22.91,14.51,22.91,17.56c0,8.3-6.25,17.23-20,17.23 c-8.055-0.001-15.323-4.833-18.44-12.26c-2.778-6.627-10.403-9.748-17.03-6.97c-6.627,2.778-9.748,10.403-6.97,17.03 c5.338,12.771,16.156,22.451,29.44,26.34v10.52c0,7.18,5.82,13,13,13c7.18,0,13-5.82,13-13v-10.3c19.46-5,33-21.24,33-41.59 C301.992,375.795,296.442,353.935,259.352,345.295z" fill="#000000" style="fill: rgb(44, 201, 91);"></path></g></g><g><g><path d="M369.382,344.865h-27.85c-7.18,0-13,5.82-13,13s5.82,13,13,13h27.85c7.18,0,13-5.82,13-13 S376.562,344.865,369.382,344.865z" fill="#000000" style="fill: rgb(44, 201, 91);"></path></g></g><g><g><path d="M170.452,344.865h-27.85c-7.18,0-13,5.82-13,13s5.82,13,13,13h27.85c7.18,0,13-5.82,13-13 S177.632,344.865,170.452,344.865z" fill="#000000" style="fill: rgb(44, 201, 91);"></path></g></g></svg>